<svg width="198" height="125" viewBox="0 0 198 125" fill="none" xmlns="http://www.w3.org/2000/svg">
<path d="M43 1.5C43 0.671574 43.6716 0 44.5 0H198V124.416H44.5C43.6716 124.416 43 123.744 43 122.916V1.5Z" fill="#E1E1E1"/>
<path d="M43 8.15845H198V122.916C198 123.744 197.328 124.416 196.5 124.416H44.5C43.6716 124.416 43 123.744 43 122.916V8.15845Z" fill="#161616"/>
<circle cx="46.75" cy="4.16577" r="1.75" fill="#FF5F57"/>
<circle cx="51.75" cy="4.16577" r="1.75" fill="#FFBD2D"/>
<circle cx="56.75" cy="4.16577" r="1.75" fill="#27C93F"/>
<rect x="43" y="8.41577" width="155" height="7" fill="#272727"/>
<path d="M0 67.9158C0 67.0873 0.671573 66.4158 1.5 66.4158H198V124.416H1.5C0.671571 124.416 0 123.744 0 122.916V67.9158Z" fill="#272727"/>
<path d="M36 17.9158C36 17.0873 36.6716 16.4158 37.5 16.4158H79V65.4158H37.5C36.6716 65.4158 36 64.7442 36 63.9158V17.9158Z" fill="#272727"/>
<rect x="80" y="16.4158" width="88" height="49" fill="#272727"/>
<rect x="169" y="16.4158" width="29" height="49" fill="#272727"/>
<rect x="81" y="17.4158" width="86" height="47" rx="2" fill="#B9B9B9"/>
<mask id="mask0_143_93" style="mask-type:alpha" maskUnits="userSpaceOnUse" x="81" y="17" width="86" height="48">
<rect x="81" y="17.4158" width="86" height="47" rx="2" fill="#B9B9B9"/>
</mask>
<g mask="url(#mask0_143_93)">
<circle cx="144" cy="58.4158" r="15" fill="#D9D9D9"/>
<g clip-path="url(#clip0_143_93)">
<path d="M154.603 47.8082C153.226 46.4312 151.622 45.3504 149.835 44.5942C147.986 43.8128 146.023 43.4158 143.997 43.4158C141.974 43.4189 140.011 43.8128 138.161 44.5974C136.375 45.3536 134.771 46.4344 133.394 47.8113C132.017 49.1883 130.936 50.7921 130.18 52.5787C129.399 54.4283 129.002 56.3913 129.002 58.4173C129.002 60.4403 129.399 62.4064 130.18 64.2561C130.936 66.0426 132.017 67.6465 133.394 69.0234C134.771 70.4004 136.375 71.4811 138.161 72.2373C140.011 73.0188 141.974 73.4158 144 73.4158C146.023 73.4158 147.989 73.0188 149.839 72.2373C151.625 71.4811 153.229 70.4004 154.606 69.0234C155.983 67.6465 157.064 66.0426 157.82 64.2561C158.601 62.4064 158.998 60.4434 158.998 58.4173C158.998 56.3945 158.601 54.4283 157.82 52.5787C157.061 50.7889 155.98 49.1883 154.603 47.8082ZM135.697 46.803C135.833 46.699 135.965 46.5888 136.104 46.4911C136.832 45.9806 137.638 45.5679 138.457 45.2244C140.203 44.4934 142.1 44.109 143.997 44.109C145.26 44.109 146.555 44.2791 147.775 44.6131C147.293 44.8085 146.703 45.1803 145.714 46.0247C144.892 45.9365 144.06 45.9334 143.225 46.0121C142.135 46.1161 141.038 46.3587 139.967 46.7369C138.999 47.0772 138.234 47.4647 137.717 47.7609C136.926 47.4773 135.905 47.1433 135.401 46.9795C135.48 47.0047 135.644 46.844 135.697 46.803ZM149.36 50.5526L146.795 57.554L140.641 58.7356L135.555 53.483C135.899 51.1009 137.531 48.9898 137.531 48.9898C137.541 48.9835 138.606 48.2146 140.313 47.6191C141.309 47.2694 142.324 47.0456 143.335 46.9511C144.161 46.8755 144.983 46.8881 145.796 46.9858L149.36 50.5526ZM130.24 57.9163C130.082 58.9341 130.048 59.9897 130.13 61.0515C130.007 60.8058 129.909 60.5979 129.837 60.4308C129.742 59.7723 129.695 59.0979 129.695 58.4111C129.695 56.3 130.152 54.2928 130.974 52.4873C130.883 53.4326 130.927 54.4125 130.993 55.1562C130.64 56.0415 130.388 56.9648 130.24 57.9163ZM131.484 63.3706C131.34 62.8381 131.169 62.063 131.084 61.1335C130.99 60.0842 131.018 59.0413 131.176 58.0424C131.295 57.2767 131.488 56.5331 131.752 55.8178C132.789 54.9419 134.163 54.4283 134.922 54.192L139.913 59.3469L139.39 64.9965L134.513 66.6255C133.271 65.7117 132.256 64.5018 131.484 63.3706ZM146.306 71.5504C145.219 72.2625 142.472 72.4327 141.356 72.4736C140.127 72.2436 138.933 71.8498 137.808 71.3078C136.825 70.8351 135.893 70.2491 135.042 69.5622C135.058 69.5339 134.909 68.0308 134.916 67.4826L139.844 65.8378L145.531 68.2987L146.316 71.541C146.31 71.5473 146.306 71.5504 146.306 71.5504ZM155.756 66.5625C154.908 67.7851 153.894 68.9225 152.674 69.7859C151.531 70.5925 149.999 70.8698 148.638 71.0935C148.534 71.1093 147.233 71.3235 147.223 71.2794L146.439 68.034L150.444 63.8653L155.747 63.3769C155.829 64.2214 155.936 65.4534 155.999 66.2065C155.917 66.3262 155.838 66.4459 155.756 66.5625ZM155.838 62.3213C155.819 62.3529 155.8 62.3875 155.781 62.4254L150.5 62.9105L147.658 57.9384L150.229 50.9213L153.859 51.1513C154.631 51.7972 155.315 52.5157 155.895 53.2908C156.619 54.2644 157.183 55.3326 157.568 56.4638C157.165 59.9676 156.235 61.7132 155.838 62.3213ZM157.732 54.4377C157.42 53.8359 157.054 53.2561 156.641 52.7047C155.989 51.8319 155.214 51.0284 154.335 50.3132C154.174 49.516 153.733 48.2619 152.548 46.9448C152.57 46.9606 152.593 46.9795 152.615 46.9952C152.687 47.0488 152.756 47.1055 152.829 47.1591C153.645 47.8019 154.389 48.5297 155.047 49.3301C156.27 50.8205 157.193 52.5503 157.735 54.4062C157.732 54.4188 157.732 54.4283 157.732 54.4377Z" fill="black"/>
<path d="M136.707 60.264C135.472 57.4195 134.978 50.2674 142.883 44.4158C146.177 44.8221 153.012 48.0731 154 57.8258C151.941 59.8576 145.601 63.1898 136.707 60.264Z" stroke="white" stroke-linecap="round"/>
</g>
<path d="M142 35.4158L139.625 40.6782L145.37 40.1037L142 35.4158ZM144 55.4158L144.498 55.366L142.945 39.8437L142.448 39.8934L141.95 39.9432L143.502 55.4655L144 55.4158Z" fill="#FF5F57"/>
<path d="M85.755 66.4158C85.4383 66.4158 85.28 66.2574 85.28 65.9408V62.1408C85.28 61.8241 85.4383 61.6658 85.755 61.6658H93.735V55.9658H87.332C87.0153 55.9658 86.857 55.8074 86.857 55.4908V51.6908C86.857 51.3741 87.0153 51.2158 87.332 51.2158H93.735V46.1428H85.755C85.4383 46.1428 85.28 45.9844 85.28 45.6678V41.5638C85.28 41.2471 85.4383 41.0888 85.755 41.0888H95.198C95.4893 41.0888 95.7427 41.1901 95.958 41.3928L99.758 45.1928C99.9607 45.4081 100.062 45.6614 100.062 45.9528V49.7528C100.062 50.0188 99.9987 50.2088 99.872 50.3228L97.402 53.1538V54.3508L99.872 57.1628C99.9987 57.2894 100.062 57.4794 100.062 57.7328V61.5328C100.062 61.8368 99.9607 62.0901 99.758 62.2928L95.958 66.0928C95.7427 66.3081 95.4893 66.4158 95.198 66.4158H85.755ZM104.901 66.4158C104.534 66.4158 104.395 66.2448 104.483 65.9028L110.24 47.6438V47.0928H102.678C102.362 47.0928 102.203 46.9344 102.203 46.6178V41.5638C102.203 41.2471 102.362 41.0888 102.678 41.0888H113.831C114.072 41.0888 114.262 41.1838 114.401 41.3738L116.966 44.9078C117.106 45.1484 117.144 45.3638 117.08 45.5538L111.266 65.9978C111.19 66.2764 111.019 66.4158 110.753 66.4158H104.901Z" fill="#343434"/>
<path d="M162 59.4158L157.745 55.5131L156.493 61.1491L162 59.4158ZM144 55.4158L143.892 55.9039L157.499 58.9277L157.607 58.4396L157.716 57.9515L144.108 54.9277L144 55.4158Z" fill="#298FEA"/>
<path d="M129 66.4158L134.739 65.7868L131.325 61.1311L129 66.4158ZM144 55.4158L143.704 55.0126L132.333 63.3514L132.629 63.7546L132.925 64.1578L144.296 55.819L144 55.4158Z" fill="#27C93F"/>
</g>
<path d="M4 76.4158V74.4158" stroke="#5F5F5F" stroke-linecap="round"/>
<path d="M29 76.4158V74.4158" stroke="#5F5F5F" stroke-linecap="round"/>
<path d="M79 76.4158V74.4158" stroke="#5F5F5F" stroke-linecap="round"/>
<path d="M54 76.4158V74.4158" stroke="#5F5F5F" stroke-linecap="round"/>
<path d="M104 76.4158V74.4158" stroke="#5F5F5F" stroke-linecap="round"/>
<path d="M129 76.4158V74.4158" stroke="#5F5F5F" stroke-linecap="round"/>
<path d="M154 76.4158V74.4158" stroke="#5F5F5F" stroke-linecap="round"/>
<path d="M27 41.7863C27 40.9017 28.0642 40.4527 28.6979 41.0701L38.2386 50.3662C38.8812 50.9923 38.4379 52.0824 37.5407 52.0824H32.8773C32.585 52.0824 32.3073 52.2103 32.1173 52.4325L28.76 56.358C28.1562 57.0639 27 56.6369 27 55.708V41.7863Z" fill="#D9D9D9" stroke="black" stroke-width="1.8" stroke-linejoin="round"/>
<path d="M1 78.4158C1 77.3112 1.89543 76.4158 3 76.4158H198V80.4158H3C1.89543 80.4158 1 79.5203 1 78.4158V78.4158Z" fill="#5F5F5F"/>
<path d="M4 84.4158H198V90.4158H4V84.4158Z" fill="#343434"/>
<path d="M38 85.9158C38 85.0873 38.6716 84.4158 39.5 84.4158H64.5C65.3284 84.4158 66 85.0873 66 85.9158V88.9158C66 89.7442 65.3284 90.4158 64.5 90.4158H39.5C38.6716 90.4158 38 89.7442 38 88.9158V85.9158Z" fill="#737283"/>
<path d="M4 91.4158H198V97.4158H4V91.4158Z" fill="#343434"/>
<path d="M4 98.4158H198V104.416H4V98.4158Z" fill="#343434"/>
<path d="M4 105.416H198V111.416H4V105.416Z" fill="#343434"/>
<path d="M13 99.9158C13 99.0873 13.6716 98.4158 14.5 98.4158H66.5C67.3284 98.4158 68 99.0873 68 99.9158V102.916C68 103.744 67.3284 104.416 66.5 104.416H14.5C13.6716 104.416 13 103.744 13 102.916V99.9158Z" fill="#737283"/>
<path d="M9 92.9158C9 92.0873 9.67157 91.4158 10.5 91.4158H165.5C166.328 91.4158 167 92.0873 167 92.9158V95.9158C167 96.7442 166.328 97.4158 165.5 97.4158H10.5C9.67157 97.4158 9 96.7442 9 95.9158V92.9158Z" fill="#737283"/>
<path d="M120 99.9158C120 99.0873 120.672 98.4158 121.5 98.4158H146.5C147.328 98.4158 148 99.0873 148 99.9158V102.916C148 103.744 147.328 104.416 146.5 104.416H121.5C120.672 104.416 120 103.744 120 102.916V99.9158Z" fill="#737283"/>
<path d="M54 106.916C54 106.087 54.6716 105.416 55.5 105.416H132.5C133.328 105.416 134 106.087 134 106.916V109.916C134 110.744 133.328 111.416 132.5 111.416H55.5C54.6716 111.416 54 110.744 54 109.916V106.916Z" fill="#737283"/>
<path d="M158 106.916C158 106.087 158.672 105.416 159.5 105.416H198V111.416H159.5C158.672 111.416 158 110.744 158 109.916V106.916Z" fill="#737283"/>
<path d="M4 112.416H198V118.416H4V112.416Z" fill="#343434"/>
<path d="M90 113.916C90 113.087 90.6716 112.416 91.5 112.416H198V118.416H91.5C90.6716 118.416 90 117.744 90 116.916V113.916Z" fill="#737283"/>
<path d="M4 113.916C4 113.087 4.67157 112.416 5.5 112.416H87.5C88.3284 112.416 89 113.087 89 113.916V116.916C89 117.744 88.3284 118.416 87.5 118.416H5.5C4.67158 118.416 4 117.744 4 116.916V113.916Z" fill="#737283"/>
<path d="M1 78.4158C1 77.3112 1.89543 76.4158 3 76.4158H4V80.4158H3C1.89543 80.4158 1 79.5203 1 78.4158V78.4158Z" fill="#298FEA"/>
<path d="M10 75.4158C10 74.8635 10.4477 74.4158 11 74.4158H15C15.5523 74.4158 16 74.8635 16 75.4158V80.2356C16 80.5166 15.8818 80.7846 15.6743 80.974L13.6743 82.8001C13.2924 83.1488 12.7076 83.1488 12.3257 82.8001L10.3257 80.974C10.1182 80.7846 10 80.5166 10 80.2356V75.4158Z" fill="#298FEA"/>
<path d="M13 77.4158V123.916" stroke="#298FEA" stroke-linecap="round"/>
<rect x="37" y="28.4158" width="41" height="7" rx="1.5" fill="#2D2D2D"/>
<path d="M170 18.9158C170 18.0873 170.672 17.4158 171.5 17.4158H198V38.4158H171.5C170.672 38.4158 170 37.7442 170 36.9158V18.9158Z" fill="#2D2D2D"/>
<path d="M170 40.9158C170 40.0873 170.672 39.4158 171.5 39.4158H198V51.4158H171.5C170.672 51.4158 170 50.7442 170 49.9158V40.9158Z" fill="#2D2D2D"/>
<path d="M170 53.9158C170 53.0873 170.672 52.4158 171.5 52.4158H198V65.4158H170V53.9158Z" fill="#2D2D2D"/>
<path d="M178 10.9158C178 10.0873 178.672 9.41577 179.5 9.41577H198V14.4158H179.5C178.672 14.4158 178 13.7442 178 12.9158V10.9158Z" fill="#343434"/>
<rect x="41" y="36.4158" width="37" height="7" rx="1.5" fill="#2D2D2D"/>
<rect x="41" y="44.4158" width="37" height="7" rx="1.5" fill="#2D2D2D"/>
<rect x="46" y="52.4158" width="32" height="7" rx="1.5" fill="#2D2D2D"/>
<rect x="44" y="9.41577" width="5" height="5" rx="2" fill="#B1B1B1"/>
<path d="M39.1852 24.5269H40.963V25.4158H38.2963V20.9713H40.963V21.8602H39.1852V22.7491H40.6667V23.638H39.1852V24.5269ZM42.443 22.7491H43.9245V23.638H42.443V25.4158H41.5541V20.9713H44.2208V21.8602H42.443V22.7491ZM45.4039 22.7491H46.8854V23.638H45.4039V25.4158H44.515V20.9713H47.1817V21.8602H45.4039V22.7491ZM48.3649 24.5269H50.1427V25.4158H47.476V20.9713H50.1427V21.8602H48.3649V22.7491H49.8464V23.638H48.3649V24.5269ZM52.5116 24.2306H52.8079V23.9343H53.6968V24.8232H53.4005V25.1195H53.1042V25.4158H51.3264V25.1195H51.0301V24.8232H50.7338V21.5639H51.0301V21.2676H51.3264V20.9713H53.1042V21.2676H53.4005V21.5639H53.6968V22.4528H52.8079V22.1565H52.5116V21.8602H51.919V22.1565H51.6227V24.2306H51.919V24.5269H52.5116V24.2306ZM54.2885 20.9713H56.9552V21.8602H56.0663V25.4158H55.1774V21.8602H54.2885V20.9713ZM57.8426 24.8232H57.5463V23.9343H58.4352V24.2306H58.7315V24.5269H59.6204V24.2306H59.9167V23.9343H59.6204V23.638H58.1389V23.3417H57.8426V23.0454H57.5463V21.5639H57.8426V21.2676H58.1389V20.9713H60.213V21.2676H60.5093V21.5639H60.8056V22.4528H59.9167V22.1565H59.6204V21.8602H58.7315V22.1565H58.4352V22.4528H58.7315V22.7491H60.213V23.0454H60.5093V23.3417H60.8056V24.8232H60.5093V25.1195H60.213V25.4158H58.1389V25.1195H57.8426V24.8232Z" fill="white"/>
<path d="M53 10.4764C53 9.89065 53.4749 9.41577 54.0607 9.41577C54.342 9.41577 54.6117 9.52752 54.8107 9.72643L57.2677 12.1835C57.4164 12.3322 57.5 12.5339 57.5 12.7443C57.5 13.3054 56.9333 13.6891 56.4123 13.4807L55.874 13.2654C55.3999 13.0757 54.8616 13.3309 54.7001 13.8154C54.5815 14.1713 54.2469 14.4158 53.8717 14.4158C53.3903 14.4158 53 14.0255 53 13.5441V10.4764Z" fill="#298FEA"/>
<path d="M60.0568 11.5881C60.4042 11.8776 60.9253 11.5845 60.8582 11.1373L60.7379 10.3351C60.6653 9.85106 61.0402 9.41577 61.5296 9.41577H62.1986C62.8425 9.41577 63.4004 9.86209 63.5418 10.4903L63.7012 11.199C63.7336 11.3431 63.75 11.4903 63.75 11.638V12.6577C63.75 12.8288 63.725 12.999 63.6759 13.1629C63.4528 13.9065 62.7683 14.4158 61.992 14.4158H61.95H61.4907C60.9238 14.4158 60.3834 14.1751 60.0041 13.7537L59.4538 13.1423C59.3226 12.9964 59.25 12.8072 59.25 12.6111V11.966C59.25 11.549 59.7364 11.3211 60.0568 11.5881Z" fill="#B1B1B1"/>
<rect x="65" y="9.41577" width="3" height="3" rx="1.5" fill="#B1B1B1"/>
<rect x="66" y="10.4158" width="4" height="4" rx="2" fill="#B1B1B1"/>
<defs>
<clipPath id="clip0_143_93">
<rect width="30" height="30" fill="white" transform="translate(129 43.4158)"/>
</clipPath>
</defs>
</svg>
