<svg width="29" height="10" viewBox="0 0 29 10" fill="none" xmlns="http://www.w3.org/2000/svg">
<path fill-rule="evenodd" clip-rule="evenodd" d="M3.69769 6.04651C3.79306 6.0163 3.89463 6 4 6L3.69769 6.04651Z" fill="white"/>
<path fill-rule="evenodd" clip-rule="evenodd" d="M4 6C3.89463 6 3.79306 6.0163 3.69769 6.04651C2.83042 6.5306 3.02119 6.92629 3.36545 7.64032C3.40849 7.72959 3.45393 7.82384 3.5 7.92386C4 9 3 9 3 9C3.77254 9.00771 2.81994 9.00351 2.29615 9.00119C2.14193 9.00051 2.02489 9 2 9C1.44772 9 1 8.55228 1 8V2C1 1.44772 1.44772 1 2 1H8.41968C8.77853 1 9.10988 1.19229 9.28792 1.50386L10.9544 4.42014C11.278 4.98645 12.1373 4.65031 12.0058 4.02512C12.004 4.0168 12.0021 4.00842 12 4L11.4387 2.31623C11.2229 1.6687 11.7049 1 12.3874 1H19C20 1.02054 20.7 1.5 21 2.5C21.2279 3.094 21.0233 3.98106 21 4.26896C21 5.21684 21.3001 5.73253 21.3001 5.73253C21.5 6.5 22.5 7.72528 23.9611 7.38381C25 7 24.5643 6.11336 23.9298 5.73253C23.5609 5.5111 23.2637 5.18635 22.8927 4.96619C21.7851 4.30893 21.3948 1.02054 23.9834 1.02054H27C27.5523 1.02054 28 1.46826 28 2.02054L28 3.58494C28 4.39686 27.0824 4.86176 26.5276 4.26896C26.3058 4.03189 26.1084 3.78875 25.9201 3.52782C25.5063 2.95418 24.6039 3.01897 24.3526 3.68015C24.18 4.13413 24.4304 4.63756 25.195 4.75949C26.7262 5.22615 27.6475 5.57379 27.8842 6.41918C27.9029 6.48601 27.91 6.55623 27.908 6.62559C27.8577 8.32404 26.3727 9.02054 25.3927 9.02054L22.3927 9.03052C22.3807 9.03052 22.3428 9.0305 22.2891 9.03048C22.0645 9.03038 21.5625 9.03016 21.5107 9.03052C20.704 9.03613 20.037 9.0232 19.5707 8.17466C19.5404 8.11953 19.5184 8.06016 19.5 8C19.2823 7.58187 19.3504 6.76698 19.5 6C19.6757 5.09918 19.6321 4.27006 19.2 4C18.7913 3.74455 17.8825 4.13088 18.0169 4.93705L18.1743 7.8356C18.2759 8.44513 17.8058 9 17.1879 9H16C15.3356 9 14.8968 8.37643 15.067 7.73423L15.9715 4.74966C16.2099 3.85026 16 2.5 14.486 3.0099C14.1897 3.2185 14 3.51686 14 4V8C14 8.55228 13.5523 9 13 9H12.5803C12.2215 9 11.8901 8.80771 11.7121 8.49614L10.0456 5.57986C9.71772 5.00601 8.8397 5.3588 9 6L9.56126 7.68377C9.7771 8.3313 9.29513 9 8.61257 9H8C7.90749 9 7.80986 9.00494 7.71043 9.00998C7.21628 9.03501 6.67754 9.06229 6.5 8.49614C6.37592 8.10047 6.52087 7.4147 6.68782 6.62481C6.86365 5.79294 7.06388 4.84559 7 4C7 3.44772 6.55228 3 6 3H3.75C3.33579 3 3 3.33579 3 3.75C3 4.16421 3.33579 4.5 3.75 4.5H5.25C5.66421 4.5 6 4.83579 6 5.25C6 5.66421 5.66421 6 5.25 6H4Z" fill="white"/>
</svg>
