<svg xmlns="http://www.w3.org/2000/svg" viewBox="-20 -20 400 400" width="100%" height="100%">
  <path d="M126.051,40.583c0,22.412 -18.175,40.583 -40.583,40.583c-22.421,0 -40.592,-18.171 -40.592,-40.583c0,-22.417 18.171,-40.583 40.592,-40.583c22.408,0 40.583,18.167 40.583,40.583Z" fill="#231f20"/>
  <path d="M312.555,106.713l-156.071,-30.854c-35.754,-6.875 -68.75,24.746 -51.342,52.25c0,0 43.971,72.312 44.492,73.354c0.6,1.196 0.675,2.521 -0.121,2.817l-59.038,24.312c-8.246,2.55 -14.408,7.163 -17.912,12.433l-67.683,83.438c-7.35,8.679 -6.275,21.667 2.4,29.021c8.675,7.35 21.671,6.275 29.021,-2.4l70.675,-70.242l92.587,-28.067c0,0 57.246,58.625 57.746,59.121c9.167,9.171 27.958,20.629 47.208,9.175l83.329,-53.583c9.833,-5.708 13.179,-18.308 7.467,-28.146c-5.713,-9.833 -18.312,-13.179 -28.142,-7.467l-71.733,37.546l-90.379,-139.475l104.067,8.171c8.667,0.946 16.467,-5.317 17.417,-13.988c0.946,-8.671 -5.312,-16.467 -13.987,-17.417Z" fill="#231f20"/>
</svg>
