<svg width="226" height="124" viewBox="0 0 226 124" fill="none" xmlns="http://www.w3.org/2000/svg">
<path d="M0 0H170.5C171.328 0 172 0.671573 172 1.5V122.5C172 123.328 171.328 124 170.5 124H0V0Z" fill="#E1E1E1"/>
<path d="M0 8H172V122.5C172 123.328 171.328 124 170.5 124H1.5C0.671574 124 0 123.328 0 122.5V8Z" fill="#161616"/>
<rect y="8" width="172" height="7" fill="#272727"/>
<rect x="46" y="16" width="88" height="49" fill="#272727"/>
<rect x="47" y="17.4158" width="86" height="47" rx="2" fill="#B9B9B9"/>
<mask id="mask0_148_143" style="mask-type:alpha" maskUnits="userSpaceOnUse" x="47" y="17" width="86" height="48">
<rect x="47" y="17.4158" width="86" height="47" rx="2" fill="#B9B9B9"/>
</mask>
<g mask="url(#mask0_148_143)">
<circle cx="110" cy="58.4158" r="15" fill="#D9D9D9"/>
<g clip-path="url(#clip0_148_143)">
<path d="M120.603 47.8082C119.226 46.4312 117.622 45.3504 115.835 44.5942C113.986 43.8128 112.023 43.4158 109.997 43.4158C107.974 43.4189 106.011 43.8128 104.161 44.5974C102.375 45.3536 100.771 46.4344 99.3939 47.8113C98.017 49.1883 96.9362 50.7921 96.18 52.5787C95.3985 54.4283 95.0015 56.3913 95.0015 58.4173C95.0015 60.4403 95.3985 62.4064 96.18 64.2561C96.9362 66.0426 98.017 67.6465 99.3939 69.0234C100.771 70.4004 102.375 71.4811 104.161 72.2373C106.011 73.0188 107.974 73.4158 110 73.4158C112.023 73.4158 113.989 73.0188 115.839 72.2373C117.625 71.4811 119.229 70.4004 120.606 69.0234C121.983 67.6465 123.064 66.0426 123.82 64.2561C124.601 62.4064 124.998 60.4434 124.998 58.4173C124.998 56.3945 124.601 54.4283 123.82 52.5787C123.061 50.7889 121.98 49.1883 120.603 47.8082ZM101.697 46.803C101.833 46.699 101.965 46.5888 102.104 46.4911C102.832 45.9806 103.638 45.5679 104.457 45.2244C106.203 44.4934 108.1 44.109 109.997 44.109C111.26 44.109 112.555 44.2791 113.775 44.6131C113.293 44.8085 112.703 45.1803 111.714 46.0247C110.892 45.9365 110.06 45.9334 109.225 46.0121C108.135 46.1161 107.038 46.3587 105.967 46.7369C104.999 47.0772 104.234 47.4647 103.717 47.7609C102.926 47.4773 101.905 47.1433 101.401 46.9795C101.48 47.0047 101.644 46.844 101.697 46.803ZM115.36 50.5526L112.795 57.554L106.641 58.7356L101.555 53.483C101.899 51.1009 103.531 48.9898 103.531 48.9898C103.541 48.9835 104.606 48.2146 106.313 47.6191C107.309 47.2694 108.324 47.0456 109.335 46.9511C110.161 46.8755 110.983 46.8881 111.796 46.9858L115.36 50.5526ZM96.2398 57.9163C96.0823 58.9341 96.0476 59.9897 96.1296 61.0515C96.0067 60.8058 95.909 60.5979 95.8365 60.4308C95.742 59.7723 95.6947 59.0979 95.6947 58.4111C95.6947 56.3 96.1516 54.2928 96.974 52.4873C96.8826 53.4326 96.9267 54.4125 96.9929 55.1562C96.64 56.0415 96.3879 56.9648 96.2398 57.9163ZM97.4845 63.3706C97.3395 62.8381 97.1694 62.063 97.0843 61.1335C96.9898 60.0842 97.0181 59.0413 97.1757 58.0424C97.2954 57.2767 97.4876 56.5331 97.7523 55.8178C98.7889 54.9419 100.163 54.4283 100.922 54.192L105.913 59.3469L105.39 64.9965L100.513 66.6255C99.271 65.7117 98.2564 64.5018 97.4845 63.3706ZM112.306 71.5504C111.219 72.2625 108.472 72.4327 107.356 72.4736C106.127 72.2436 104.933 71.8498 103.808 71.3078C102.825 70.8351 101.893 70.2491 101.042 69.5622C101.058 69.5339 100.909 68.0308 100.916 67.4826L105.844 65.8378L111.531 68.2987L112.316 71.541C112.31 71.5473 112.306 71.5504 112.306 71.5504ZM121.756 66.5625C120.908 67.7851 119.894 68.9225 118.674 69.7859C117.531 70.5925 115.999 70.8698 114.638 71.0935C114.534 71.1093 113.233 71.3235 113.223 71.2794L112.439 68.034L116.444 63.8653L121.747 63.3769C121.829 64.2214 121.936 65.4534 121.999 66.2065C121.917 66.3262 121.838 66.4459 121.756 66.5625ZM121.838 62.3213C121.819 62.3529 121.8 62.3875 121.781 62.4254L116.5 62.9105L113.658 57.9384L116.229 50.9213L119.859 51.1513C120.631 51.7972 121.315 52.5157 121.895 53.2908C122.619 54.2644 123.183 55.3326 123.568 56.4638C123.165 59.9676 122.235 61.7132 121.838 62.3213ZM123.732 54.4377C123.42 53.8359 123.054 53.2561 122.641 52.7047C121.989 51.8319 121.214 51.0284 120.335 50.3132C120.174 49.516 119.733 48.2619 118.548 46.9448C118.57 46.9606 118.593 46.9795 118.615 46.9952C118.687 47.0488 118.756 47.1055 118.829 47.1591C119.645 47.8019 120.389 48.5297 121.047 49.3301C122.27 50.8205 123.193 52.5503 123.735 54.4062C123.732 54.4188 123.732 54.4283 123.732 54.4377Z" fill="black"/>
</g>
<path d="M51.755 66.4158C51.4383 66.4158 51.28 66.2574 51.28 65.9408V62.1408C51.28 61.8241 51.4383 61.6658 51.755 61.6658H59.735V55.9658H53.332C53.0153 55.9658 52.857 55.8074 52.857 55.4908V51.6908C52.857 51.3741 53.0153 51.2158 53.332 51.2158H59.735V46.1428H51.755C51.4383 46.1428 51.28 45.9844 51.28 45.6678V41.5638C51.28 41.2471 51.4383 41.0888 51.755 41.0888H61.198C61.4893 41.0888 61.7427 41.1901 61.958 41.3928L65.758 45.1928C65.9607 45.4081 66.062 45.6614 66.062 45.9528V49.7528C66.062 50.0188 65.9987 50.2088 65.872 50.3228L63.402 53.1538V54.3508L65.872 57.1628C65.9987 57.2894 66.062 57.4794 66.062 57.7328V61.5328C66.062 61.8368 65.9607 62.0901 65.758 62.2928L61.958 66.0928C61.7427 66.3081 61.4893 66.4158 61.198 66.4158H51.755ZM70.9014 66.4158C70.534 66.4158 70.3947 66.2448 70.4834 65.9028L76.2404 47.6438V47.0928H68.6784C68.3617 47.0928 68.2034 46.9344 68.2034 46.6178V41.5638C68.2034 41.2471 68.3617 41.0888 68.6784 41.0888H79.8314C80.072 41.0888 80.262 41.1838 80.4014 41.3738L82.9664 44.9078C83.1057 45.1484 83.1437 45.3638 83.0804 45.5538L77.2664 65.9978C77.1904 66.2764 77.0194 66.4158 76.7534 66.4158H70.9014Z" fill="#343434"/>
<path d="M84 64V39.5H49V64.5" stroke="#298FEA" stroke-width="0.6" stroke-linecap="round"/>
</g>
<rect x="46" y="16" width="88" height="49" fill="#272727"/>
<rect x="47" y="17.4158" width="86" height="47" rx="2" fill="#B9B9B9"/>
<mask id="mask1_148_143" style="mask-type:alpha" maskUnits="userSpaceOnUse" x="47" y="17" width="86" height="48">
<rect x="47" y="17.4158" width="86" height="47" rx="2" fill="#B9B9B9"/>
</mask>
<g mask="url(#mask1_148_143)">
<circle cx="110" cy="58.4158" r="15" fill="#D9D9D9"/>
<g clip-path="url(#clip1_148_143)">
<path d="M120.603 47.8082C119.226 46.4312 117.622 45.3504 115.835 44.5942C113.986 43.8128 112.023 43.4158 109.997 43.4158C107.974 43.4189 106.011 43.8128 104.161 44.5974C102.375 45.3536 100.771 46.4344 99.3939 47.8113C98.017 49.1883 96.9362 50.7921 96.18 52.5787C95.3985 54.4283 95.0015 56.3913 95.0015 58.4173C95.0015 60.4403 95.3985 62.4064 96.18 64.2561C96.9362 66.0426 98.017 67.6465 99.3939 69.0234C100.771 70.4004 102.375 71.4811 104.161 72.2373C106.011 73.0188 107.974 73.4158 110 73.4158C112.023 73.4158 113.989 73.0188 115.839 72.2373C117.625 71.4811 119.229 70.4004 120.606 69.0234C121.983 67.6465 123.064 66.0426 123.82 64.2561C124.601 62.4064 124.998 60.4434 124.998 58.4173C124.998 56.3945 124.601 54.4283 123.82 52.5787C123.061 50.7889 121.98 49.1883 120.603 47.8082ZM101.697 46.803C101.833 46.699 101.965 46.5888 102.104 46.4911C102.832 45.9806 103.638 45.5679 104.457 45.2244C106.203 44.4934 108.1 44.109 109.997 44.109C111.26 44.109 112.555 44.2791 113.775 44.6131C113.293 44.8085 112.703 45.1803 111.714 46.0247C110.892 45.9365 110.06 45.9334 109.225 46.0121C108.135 46.1161 107.038 46.3587 105.967 46.7369C104.999 47.0772 104.234 47.4647 103.717 47.7609C102.926 47.4773 101.905 47.1433 101.401 46.9795C101.48 47.0047 101.644 46.844 101.697 46.803ZM115.36 50.5526L112.795 57.554L106.641 58.7356L101.555 53.483C101.899 51.1009 103.531 48.9898 103.531 48.9898C103.541 48.9835 104.606 48.2146 106.313 47.6191C107.309 47.2694 108.324 47.0456 109.335 46.9511C110.161 46.8755 110.983 46.8881 111.796 46.9858L115.36 50.5526ZM96.2398 57.9163C96.0823 58.9341 96.0476 59.9897 96.1296 61.0515C96.0067 60.8058 95.909 60.5979 95.8365 60.4308C95.742 59.7723 95.6947 59.0979 95.6947 58.4111C95.6947 56.3 96.1516 54.2928 96.974 52.4873C96.8826 53.4326 96.9267 54.4125 96.9929 55.1562C96.64 56.0415 96.3879 56.9648 96.2398 57.9163ZM97.4845 63.3706C97.3395 62.8381 97.1694 62.063 97.0843 61.1335C96.9898 60.0842 97.0181 59.0413 97.1757 58.0424C97.2954 57.2767 97.4876 56.5331 97.7523 55.8178C98.7889 54.9419 100.163 54.4283 100.922 54.192L105.913 59.3469L105.39 64.9965L100.513 66.6255C99.271 65.7117 98.2564 64.5018 97.4845 63.3706ZM112.306 71.5504C111.219 72.2625 108.472 72.4327 107.356 72.4736C106.127 72.2436 104.933 71.8498 103.808 71.3078C102.825 70.8351 101.893 70.2491 101.042 69.5622C101.058 69.5339 100.909 68.0308 100.916 67.4826L105.844 65.8378L111.531 68.2987L112.316 71.541C112.31 71.5473 112.306 71.5504 112.306 71.5504ZM121.756 66.5625C120.908 67.7851 119.894 68.9225 118.674 69.7859C117.531 70.5925 115.999 70.8698 114.638 71.0935C114.534 71.1093 113.233 71.3235 113.223 71.2794L112.439 68.034L116.444 63.8653L121.747 63.3769C121.829 64.2214 121.936 65.4534 121.999 66.2065C121.917 66.3262 121.838 66.4459 121.756 66.5625ZM121.838 62.3213C121.819 62.3529 121.8 62.3875 121.781 62.4254L116.5 62.9105L113.658 57.9384L116.229 50.9213L119.859 51.1513C120.631 51.7972 121.315 52.5157 121.895 53.2908C122.619 54.2644 123.183 55.3326 123.568 56.4638C123.165 59.9676 122.235 61.7132 121.838 62.3213ZM123.732 54.4377C123.42 53.8359 123.054 53.2561 122.641 52.7047C121.989 51.8319 121.214 51.0284 120.335 50.3132C120.174 49.516 119.733 48.2619 118.548 46.9448C118.57 46.9606 118.593 46.9795 118.615 46.9952C118.687 47.0488 118.756 47.1055 118.829 47.1591C119.645 47.8019 120.389 48.5297 121.047 49.3301C122.27 50.8205 123.193 52.5503 123.735 54.4062C123.732 54.4188 123.732 54.4283 123.732 54.4377Z" fill="black"/>
</g>
<path d="M51.755 66.4158C51.4383 66.4158 51.28 66.2574 51.28 65.9408V62.1408C51.28 61.8241 51.4383 61.6658 51.755 61.6658H59.735V55.9658H53.332C53.0153 55.9658 52.857 55.8074 52.857 55.4908V51.6908C52.857 51.3741 53.0153 51.2158 53.332 51.2158H59.735V46.1428H51.755C51.4383 46.1428 51.28 45.9844 51.28 45.6678V41.5638C51.28 41.2471 51.4383 41.0888 51.755 41.0888H61.198C61.4893 41.0888 61.7427 41.1901 61.958 41.3928L65.758 45.1928C65.9607 45.4081 66.062 45.6614 66.062 45.9528V49.7528C66.062 50.0188 65.9987 50.2088 65.872 50.3228L63.402 53.1538V54.3508L65.872 57.1628C65.9987 57.2894 66.062 57.4794 66.062 57.7328V61.5328C66.062 61.8368 65.9607 62.0901 65.758 62.2928L61.958 66.0928C61.7427 66.3081 61.4893 66.4158 61.198 66.4158H51.755ZM70.9014 66.4158C70.534 66.4158 70.3947 66.2448 70.4834 65.9028L76.2404 47.6438V47.0928H68.6784C68.3617 47.0928 68.2034 46.9344 68.2034 46.6178V41.5638C68.2034 41.2471 68.3617 41.0888 68.6784 41.0888H79.8314C80.072 41.0888 80.262 41.1838 80.4014 41.3738L82.9664 44.9078C83.1057 45.1484 83.1437 45.3638 83.0804 45.5538L77.2664 65.9978C77.1904 66.2764 77.0194 66.4158 76.7534 66.4158H70.9014Z" fill="#343434"/>
<path d="M84 64V39.5H49V64.5" stroke="#298FEA" stroke-width="0.6" stroke-linecap="round"/>
</g>
<path d="M28 67.5C28 66.6716 28.6716 66 29.5 66H224.5C225.328 66 226 66.6716 226 67.5V122.5C226 123.328 225.328 124 224.5 124H29.5C28.6716 124 28 123.328 28 122.5V67.5Z" fill="#272727"/>
<path d="M57 76V74" stroke="#5F5F5F" stroke-linecap="round"/>
<path d="M107 76V74" stroke="#5F5F5F" stroke-linecap="round"/>
<path d="M82 76V74" stroke="#5F5F5F" stroke-linecap="round"/>
<path d="M132 76V74" stroke="#5F5F5F" stroke-linecap="round"/>
<path d="M157 76V74" stroke="#5F5F5F" stroke-linecap="round"/>
<path d="M182 76V74" stroke="#5F5F5F" stroke-linecap="round"/>
<path d="M29 78C29 76.8954 29.8954 76 31 76H224.5C225.328 76 226 76.6716 226 77.5V78.5C226 79.3284 225.328 80 224.5 80H31C29.8954 80 29 79.1046 29 78V78Z" fill="#5F5F5F"/>
<path d="M32 84H224.5C225.328 84 226 84.6716 226 85.5V88.5C226 89.3284 225.328 90 224.5 90H32V84Z" fill="#343434"/>
<path d="M32 91H224.5C225.328 91 226 91.6716 226 92.5V95.5C226 96.3284 225.328 97 224.5 97H32V91Z" fill="#343434"/>
<path d="M32 98H224.5C225.328 98 226 98.6716 226 99.5V102.5C226 103.328 225.328 104 224.5 104H32V98Z" fill="#343434"/>
<path d="M32 107H224.5C225.328 107 226 107.672 226 108.5V111.5C226 112.328 225.328 113 224.5 113H32V107Z" fill="#343434"/>
<path d="M61 85.5C61 84.6716 61.6716 84 62.5 84H81.5C82.3284 84 83 84.6716 83 85.5V88.5C83 89.3284 82.3284 90 81.5 90H62.5C61.6716 90 61 89.3284 61 88.5V85.5Z" fill="#739BCE"/>
<path d="M113 92.5C113 91.6716 113.672 91 114.5 91H174.5C175.328 91 176 91.6716 176 92.5V95.5C176 96.3284 175.328 97 174.5 97H114.5C113.672 97 113 96.3284 113 95.5V92.5Z" fill="#739BCE"/>
<path d="M185 85.5C185 84.6716 185.672 84 186.5 84H218.5C219.328 84 220 84.6716 220 85.5V88.5C220 89.3284 219.328 90 218.5 90H186.5C185.672 90 185 89.3284 185 88.5V85.5Z" fill="#739BCE"/>
<path d="M193 92.5C193 91.6716 193.672 91 194.5 91H198.5C199.328 91 200 91.6716 200 92.5V95.5C200 96.3284 199.328 97 198.5 97H194.5C193.672 97 193 96.3284 193 95.5V92.5Z" fill="#739BCE"/>
<path d="M201 92.5C201 91.6716 201.672 91 202.5 91H218.5C219.328 91 220 91.6716 220 92.5V95.5C220 96.3284 219.328 97 218.5 97H202.5C201.672 97 201 96.3284 201 95.5V92.5Z" fill="#739BCE"/>
<path d="M32 99.5C32 98.6716 32.6716 98 33.5 98H188.5C189.328 98 190 98.6716 190 99.5V102.5C190 103.328 189.328 104 188.5 104H33.5C32.6716 104 32 103.328 32 102.5V99.5Z" fill="#739BCE"/>
<path d="M191 99.5C191 98.6716 191.672 98 192.5 98H224.5C225.328 98 226 98.6716 226 99.5V102.5C226 103.328 225.328 104 224.5 104H192.5C191.672 104 191 103.328 191 102.5V99.5Z" fill="#739BCE"/>
<path d="M49 92.5C49 91.6716 49.6716 91 50.5 91H69.5C70.3284 91 71 91.6716 71 92.5V95.5C71 96.3284 70.3284 97 69.5 97H50.5C49.6716 97 49 96.3284 49 95.5V92.5Z" fill="#739BCE"/>
<path d="M90 92.5C90 91.6716 90.6716 91 91.5 91H110.5C111.328 91 112 91.6716 112 92.5V95.5C112 96.3284 111.328 97 110.5 97H91.5C90.6716 97 90 96.3284 90 95.5V92.5Z" fill="#739BCE"/>
<path d="M60 108.5C60 107.672 60.6716 107 61.5 107H92.5C93.3284 107 94 107.672 94 108.5V111.5C94 112.328 93.3284 113 92.5 113H61.5C60.6716 113 60 112.328 60 111.5V108.5Z" fill="#166B4C"/>
<path d="M99 108.5C99 107.672 99.6716 107 100.5 107H113.5C114.328 107 115 107.672 115 108.5V111.5C115 112.328 114.328 113 113.5 113H100.5C99.6716 113 99 112.328 99 111.5V108.5Z" fill="#166B4C"/>
<path d="M195 108.5C195 107.672 195.672 107 196.5 107H220.5C221.328 107 222 107.672 222 108.5V111.5C222 112.328 221.328 113 220.5 113H196.5C195.672 113 195 112.328 195 111.5V108.5Z" fill="#166B4C"/>
<path d="M121 108.5C121 107.672 121.672 107 122.5 107H125.5C126.328 107 127 107.672 127 108.5V111.5C127 112.328 126.328 113 125.5 113H122.5C121.672 113 121 112.328 121 111.5V108.5Z" fill="#166B4C"/>
<path d="M133 108.5C133 107.672 133.672 107 134.5 107H137.5C138.328 107 139 107.672 139 108.5V111.5C139 112.328 138.328 113 137.5 113H134.5C133.672 113 133 112.328 133 111.5V108.5Z" fill="#166B4C"/>
<path d="M140 108.5C140 107.672 140.672 107 141.5 107H188.5C189.328 107 190 107.672 190 108.5V111.5C190 112.328 189.328 113 188.5 113H141.5C140.672 113 140 112.328 140 111.5V108.5Z" fill="#166B4C"/>
<path d="M32 114H224.5C225.328 114 226 114.672 226 115.5V118.5C226 119.328 225.328 120 224.5 120H32V114Z" fill="#343434"/>
<path d="M32 115.5C32 114.672 32.6716 114 33.5 114H224.5C225.328 114 226 114.672 226 115.5V118.5C226 119.328 225.328 120 224.5 120H33.5C32.6716 120 32 119.328 32 118.5V115.5Z" fill="#166B4C"/>
<rect x="135" y="16" width="36" height="49" rx="1.5" fill="#272727"/>
<rect x="135.806" y="17" width="34" height="21" rx="1.5" fill="#2D2D2D"/>
<rect x="135.806" y="39" width="34" height="12" rx="1.5" fill="#2D2D2D"/>
<rect x="135.806" y="52" width="34" height="13" rx="1.5" fill="#2D2D2D"/>
<rect x="61" y="9" width="20" height="5" rx="1.5" fill="#343434"/>
<rect x="40" y="9" width="20" height="5" rx="1.5" fill="#343434"/>
<path d="M0 9H10.5C11.3284 9 12 9.67157 12 10.5V12.5C12 13.3284 11.3284 14 10.5 14H0V9Z" fill="#343434"/>
<rect x="82" y="9" width="20" height="5" rx="1.5" fill="#343434"/>
<path d="M0 16H34V65H0V16Z" fill="#272727"/>
<path d="M0 28H10.5C11.3284 28 12 28.6716 12 29.5V40.5C12 41.3284 11.3284 42 10.5 42H0V28Z" fill="#2D2D2D"/>
<path d="M0 44H10.5C11.3284 44 12 44.6716 12 45.5V56.5C12 57.3284 11.3284 58 10.5 58H0V44Z" fill="#2D2D2D"/>
<path d="M0 60H10.5C11.3284 60 12 60.6716 12 61.5V65H0V60Z" fill="#2D2D2D"/>
<rect x="13" y="28" width="20" height="14" rx="1.5" fill="#2D2D2D"/>
<rect x="13" y="44" width="20" height="14" rx="1.5" fill="#2D2D2D"/>
<path d="M13 61.5C13 60.6716 13.6716 60 14.5 60H31.5C32.3284 60 33 60.6716 33 61.5V65H13V61.5Z" fill="#2D2D2D"/>
<path d="M137.296 19.5556H139.667V19.8519H139.963V20.1481H140.259V21.9259H139.963V22.2222H139.667V22.5185H138.185V24H137.296V19.5556ZM139.074 21.3333H139.37V20.7407H139.074V20.4444H138.185V21.6296H139.074V21.3333ZM141.74 21.037H142.036V20.7407H143.221V21.037H143.518V21.3333H143.221V21.6296H142.925V21.9259H142.629V21.6296H142.036V21.9259H141.74V24H140.851V20.7407H141.74V21.037ZM144.108 23.4074H143.812V21.3333H144.108V21.037H144.405V20.7407H146.182V21.037H146.479V21.3333H146.775V22.8148H144.701V23.1111H146.775V23.4074H146.479V23.7037H146.182V24H144.405V23.7037H144.108V23.4074ZM144.701 22.2222H145.886V21.6296H144.701V22.2222ZM148.255 21.037H148.552V20.7407H149.441V21.037H149.737V21.3333H150.033V21.037H150.33V20.7407H151.218V21.037H151.515V21.3333H151.811V24H150.922V21.6296H150.33V21.9259H150.033V24H149.144V21.6296H148.552V21.9259H148.255V24H147.367V20.7407H148.255V21.037ZM152.406 19.5556H153.295V20.4444H152.406V19.5556ZM152.406 21.037H153.295V24H152.406V21.037ZM154.186 23.4074H153.89V21.3333H154.186V21.037H154.483V20.7407H156.26V21.037H156.557V21.3333H156.853V22.8148H154.779V23.1111H156.853V23.4074H156.557V23.7037H156.26V24H154.483V23.7037H154.186V23.4074ZM154.779 22.2222H155.964V21.6296H154.779V22.2222ZM158.334 21.037H158.63V20.7407H159.815V21.037H160.111V21.3333H159.815V21.6296H159.519V21.9259H159.223V21.6296H158.63V21.9259H158.334V24H157.445V20.7407H158.334V21.037ZM160.702 23.4074H160.406V21.3333H160.702V21.037H160.998V20.7407H162.776V21.037H163.072V21.3333H163.369V22.8148H161.295V23.1111H163.369V23.4074H163.072V23.7037H162.776V24H160.998V23.7037H160.702V23.4074ZM161.295 22.2222H162.48V21.6296H161.295V22.2222Z" fill="white"/>
<path d="M35 17.5C35 16.6716 35.6716 16 36.5 16H43.5C44.3284 16 45 16.6716 45 17.5V63.5C45 64.3284 44.3284 65 43.5 65H36.5C35.6716 65 35 64.3284 35 63.5V17.5Z" fill="#272727"/>
<path d="M0 67.5C0 66.6716 0.671573 66 1.5 66H30C30.8284 66 31.5 66.6716 31.5 67.5V122.5C31.5 123.328 30.8284 124 30 124H1.5C0.671573 124 0 123.328 0 122.5V67.5Z" fill="#272727"/>
<path d="M0 84H32V90H0V84Z" fill="#343434"/>
<rect x="2" y="68" width="12" height="2" rx="1" fill="#343434"/>
<rect x="15" y="68" width="12" height="2" rx="1" fill="#343434"/>
<path d="M0 18H8C8.55228 18 9 18.4477 9 19V20C9 20.5523 8.55228 21 8 21H0V18Z" fill="#343434"/>
<rect x="10" y="18" width="12" height="3" rx="1" fill="#343434"/>
<rect x="87" y="68" width="6" height="2" rx="1" fill="#5F5F5F"/>
<rect x="79" y="68" width="6" height="2" rx="1" fill="#5F5F5F"/>
<rect x="95" y="68" width="6" height="2" rx="1" fill="#5F5F5F"/>
<path d="M0 91H32V97H0V91Z" fill="#343434"/>
<path d="M0 98H32V104H0V98Z" fill="#343434"/>
<path d="M0 107H32V113H0V107Z" fill="#343434"/>
<path d="M0 114H32V120H0V114Z" fill="#343434"/>
<path d="M38 20.0607C38 19.4749 38.4749 19 39.0607 19C39.342 19 39.6117 19.1117 39.8107 19.3107L42.2677 21.7677C42.4164 21.9164 42.5 22.1182 42.5 22.3285C42.5 22.8896 41.9333 23.2733 41.4123 23.0649L40.874 22.8496C40.3999 22.6599 39.8616 22.9151 39.7001 23.3996C39.5815 23.7555 39.2469 24 38.8717 24C38.3903 24 38 23.6097 38 23.1283V20.0607Z" fill="#B1B1B1"/>
<path d="M38.1961 50.9806L38.7564 53.7818C38.898 54.4901 39.52 55 40.2423 55C40.7193 55 41.1684 54.7754 41.4546 54.3938L41.651 54.132C42.1598 53.4537 42.1854 52.5282 41.7151 51.8226L41.0937 50.8906C40.7228 50.3342 40.0983 50 39.4296 50H39C38.4827 50 38.0947 50.4733 38.1961 50.9806Z" fill="#298FEA"/>
<path d="M38.8068 29.1724C39.1542 29.4619 39.6753 29.1687 39.6082 28.7215L39.4879 27.9193C39.4153 27.4353 39.7902 27 40.2796 27H40.9486C41.5925 27 42.1504 27.4463 42.2918 28.0745L42.4512 28.7832C42.4836 28.9273 42.5 29.0745 42.5 29.2222V30.242C42.5 30.4131 42.475 30.5833 42.4259 30.7471C42.2028 31.4908 41.5183 32 40.742 32H40.7H40.2407C39.6738 32 39.1334 31.7594 38.7541 31.3379L38.2038 30.7265C38.0726 30.5807 38 30.3915 38 30.1953V29.5503C38 29.1332 38.4864 28.9054 38.8068 29.1724Z" fill="#B1B1B1"/>
<rect x="38" y="35" width="2.7" height="2.7" rx="1.35" fill="#B1B1B1"/>
<rect x="38.9" y="35.8999" width="3.6" height="3.6" rx="1.8" fill="#B1B1B1"/>
<path d="M0 105H226V106H0V105Z" fill="#5F5F5F"/>
<path d="M162 75C162 74.4477 162.448 74 163 74H167C167.552 74 168 74.4477 168 75V79.8198C168 80.1008 167.882 80.3688 167.674 80.5583L165.674 82.3844C165.292 82.733 164.708 82.733 164.326 82.3844L162.326 80.5583C162.118 80.3688 162 80.1008 162 79.8198V75Z" fill="#298FEA"/>
<path d="M165 77V123.5" stroke="#298FEA" stroke-linecap="round"/>
<path d="M32 123.5V74" stroke="#5F5F5F" stroke-linecap="round" stroke-linejoin="round"/>
<path d="M32 123.5V116.5" stroke="#5F5F5F" stroke-linecap="square" stroke-linejoin="round"/>
<rect x="7" y="84" width="11" height="6" fill="#298FEA"/>
<rect x="2" y="72" width="6" height="4" fill="#298FEA"/>
<rect x="9" y="72" width="6" height="4" fill="#298FEA"/>
<rect x="16" y="72" width="6" height="4" fill="#298FEA"/>
<rect x="2" y="84" width="4" height="6" fill="#5F5F5F"/>
<rect x="7" y="91" width="11" height="6" fill="#298FEA"/>
<rect x="2" y="91" width="4" height="6" fill="#5F5F5F"/>
<rect x="7" y="98" width="11" height="6" fill="#298FEA"/>
<rect x="2" y="98" width="4" height="6" fill="#5F5F5F"/>
<rect x="7" y="107" width="11" height="6" fill="#298FEA"/>
<rect x="2" y="107" width="4" height="6" fill="#5F5F5F"/>
<rect x="7" y="114" width="11" height="6" fill="#298FEA"/>
<rect x="2" y="114" width="4" height="6" fill="#5F5F5F"/>
<rect x="38" y="43" width="4.5" height="0.9" fill="#B1B1B1"/>
<rect x="39.8" y="43.8999" width="0.9" height="3.6" fill="#B1B1B1"/>
<rect x="38.9" y="46.6001" width="2.7" height="0.9" fill="#B1B1B1"/>
<rect x="38" y="43" width="0.9" height="1.8" fill="#B1B1B1"/>
<rect x="41.6" y="43" width="0.9" height="1.8" fill="#B1B1B1"/>
<path d="M172.863 33.0302C173.898 31.7712 175.876 31.8189 176.828 33.1569L187.325 47.9042C188.191 49.1201 187.761 50.7873 186.464 51.4778L186.463 51.4789L182.438 53.6183L182.407 53.6425L179.641 57.0119C178.606 58.273 176.628 58.2237 175.675 56.8853L175.674 56.8854L165.179 42.138C164.315 40.9232 164.741 39.2562 166.041 38.5653L170.065 36.4259L170.096 36.4018L172.862 33.0303L172.863 33.0302ZM178.395 50.3495L181.588 47.9724L178.782 47.6051L178.395 50.3495ZM171.895 41.9268L174.698 42.2934L175.087 39.5497L171.895 41.9268Z" fill="#D9D9D9" stroke="black" stroke-width="2" stroke-linejoin="round"/>
<rect x="166" y="9" width="5" height="5" rx="2" fill="#B1B1B1"/>
<rect x="160" y="9" width="5" height="5" rx="2" fill="#B1B1B1"/>
<rect x="154" y="9" width="5" height="5" rx="2" fill="#B1B1B1"/>
<path d="M159 0H170.5C171.328 0 172 0.671573 172 1.5V8H159V0Z" fill="#E1E1E1"/>
<rect x="146" width="13" height="8" fill="#E1E1E1"/>
<rect x="133" width="13" height="8" fill="#E1E1E1"/>
<path d="M137 4H142" stroke="#B1B1B1" stroke-width="0.8" stroke-linecap="round"/>
<path d="M163.736 2.23364L167.271 5.76918" stroke="#B1B1B1" stroke-width="0.8" stroke-linecap="round"/>
<path d="M167.271 2.24072L163.736 5.77626" stroke="#B1B1B1" stroke-width="0.8" stroke-linecap="round"/>
<path d="M150 2H155" stroke="#B1B1B1" stroke-width="0.8" stroke-linecap="round"/>
<path d="M150 6H155" stroke="#B1B1B1" stroke-width="0.8" stroke-linecap="round"/>
<path d="M150 6V2M155 2V6" stroke="#B1B1B1" stroke-width="0.8" stroke-linecap="round"/>
<rect x="48" y="38.5" width="2" height="2" fill="#298FEA"/>
<rect x="83" y="38.5" width="2" height="2" fill="#298FEA"/>
<defs>
<clipPath id="clip0_148_143">
<rect width="30" height="30" fill="white" transform="translate(95 43.4158)"/>
</clipPath>
<clipPath id="clip1_148_143">
<rect width="30" height="30" fill="white" transform="translate(95 43.4158)"/>
</clipPath>
</defs>
</svg>
